<?xml version="1.0" encoding="utf-8"?>
<!-- Generator: Adobe Illustrator 21.0.0, SVG Export Plug-In . SVG Version: 6.00 Build 0)  -->
<svg version="1.1" id="Layer_1" xmlns="http://www.w3.org/2000/svg" xmlns:xlink="http://www.w3.org/1999/xlink" x="0px" y="0px"
	 viewBox="0 0 223 60" style="enable-background:new 0 0 223 60;" xml:space="preserve">
<g>
	<g>
		<path d="M34.7,43.4c0,3.7-0.1,6.2-0.3,7.4c-0.2,1.3-0.6,1.9-1.2,1.9c-0.3,0-0.7-0.1-1.3-0.2c-0.6-0.1-1-0.2-1.3-0.2h-0.5
			c-1,0-1.8-0.3-2.2-1c-0.4-0.7-0.7-1.2-0.8-1.6c-5.3-10.6-7.9-16-7.9-16.3l-1.5-3.4c-0.1-0.3-0.2-0.4-0.3-0.5
			c-0.1-0.1-0.2-0.2-0.4-0.3c-0.1,0.3-0.1,0.6-0.1,0.8c0,1.4,0,2.7,0.1,3.8c0.2,4,0.3,6.3,0.3,6.7v4.5v4.9v0.5c0,1.4,0,2.1-0.1,2.4
			c-0.2,1-0.8,1.5-2,1.5c-0.6,0-1.2-0.2-1.8-0.5c-0.6-0.3-1-0.5-1.4-0.6c-0.3-0.1-0.6-0.1-1-0.2c-0.3,0-0.5-0.2-0.5-0.4v-1.2
			c-0.1-1.7-0.1-3.4-0.1-4.8c0-1.5-0.1-3.1-0.1-4.9v-5.7v-4.3l0.2-8.7c0.3-8.4,0.4-12.7,0.4-12.9c0.1-0.4,0.4-0.6,1-0.6
			c0.6,0,1.5,0.2,2.7,0.5c1.2,0.3,2,0.6,2.4,0.9c0.4,0.3,0.9,1,1.4,2.2s1.2,3.1,2,5.5c1.7,4.7,3.3,8.9,4.9,12.6
			c0.6,1.3,1.3,2.8,2.1,4.5c0.2-0.3,0.3-0.5,0.3-0.7c0-0.2,0-0.9-0.1-2.2c-0.1-1.3-0.1-2.3-0.1-3C27.6,15.3,27.7,8,27.7,7.9
			c0-0.6,0.1-1,0.4-1.1c0.2-0.1,0.6-0.1,1.2-0.1c2,0,3.3,0.2,4,0.5c0.7,0.3,1.1,0.9,1.1,1.8c0,0.1,0.1,1.5,0.2,4.1
			c0.1,2.7,0.2,5.3,0.2,7.9l-0.2,9.8L34.7,43.4z"/>
		<path d="M62.9,51.3c0,0.1-0.2,0.2-0.6,0.3c-1.2,0-2.5,0.2-4,0.5c-1,0.2-2,0.4-2.9,0.7c-1.8,0.3-3.5,0.5-5.2,0.7
			c-0.6,0-1.3,0.1-2.2,0.2c-0.6-0.3-1.1-0.5-1.5-0.7c-1.1-0.6-1.8-1.1-2.2-1.5c-0.7-0.7-1-4.3-1-10.6c0-15.5,0.2-25.2,0.7-29.1
			c0.1-1.1,0.3-1.9,0.6-2.3c0.3-0.4,0.7-0.6,1.5-0.6c0.2,0,0.5,0.1,0.9,0.3c0.4,0.2,0.7,0.3,0.8,0.3c1.4-0.3,3.1-0.6,4.9-0.9
			C54.5,8.1,56.3,8,58.1,8c0.6,0,1.3,0.5,2.1,1.5c0.9,1.2,1.4,2.5,1.4,3.9c0,0.7-0.5,1.2-1.5,1.4c0,0-1.2,0.2-3.6,0.6
			c-0.7,0.1-1.8,0.2-3.4,0.3c-1.6,0-2.4,0.4-2.4,1.1l0.1,0.8c0,1.1,0,1.9-0.1,2.6c-0.3,3.1-0.4,4.9-0.4,5.2c0,0.4,0,0.6,0.1,0.7
			c0.1,0.1,0.3,0.1,0.7,0.1c1.1-0.2,2.4-0.3,3.8-0.4c1.4-0.1,2.6-0.2,3.7-0.2c1.1,0,2,0.4,2.6,1.2c0.6,0.8,0.9,1.9,0.9,3.3l0.1,1.6
			c0,0.5-1.7,0.9-5.1,1.3c-2.2,0.2-3.8,0.4-5,0.5c-1.2,0.1-1.7,0.5-1.7,1.1v2.4v5.7L50,44.3c0,0.9,0.2,1.3,0.5,1.3
			c0.9,0,2.1-0.1,3.4-0.3c3.1-0.5,4.9-0.8,5.3-0.8c0.6,0,1.3,0.4,2.1,1.2c0.8,0.8,1.2,1.7,1.2,2.7l-0.1,1.6
			C62.8,50.6,62.9,51,62.9,51.3z"/>
		<path d="M93.8,10.2c-0.6,1-1.3,2.4-2.3,4.4c-1.2,2.3-2.4,4.8-3.5,7.4c-1.1,2.6-2.1,4.9-2.8,6.9c-0.3,0.7-0.6,1.5-0.9,2.5
			c0,0.3,0.3,1.2,0.9,3c0.6,1.7,1.7,4.4,3.2,8.1c1.9,4.5,2.8,7.2,2.8,8.1c0,1.3-0.4,1.9-1.1,1.9l-2.6-0.1c-0.7,0-1.3-0.1-1.7-0.4
			c-0.6-0.4-1.2-1.3-1.9-2.6c-2.8-5.8-4.2-8.7-4.2-8.7c-0.3,0-1.6,2.8-3.8,8.4c-0.1,0.2-0.4,1.3-1.1,3.3c-0.4,1.3-1,1.9-1.8,1.9
			c-1,0-2-0.5-3.2-1.5c-0.8-0.7-1.5-1.4-2.2-2.1c1.3-3.2,2.6-6.3,3.8-9.1c1.7-4,2.6-6.1,2.7-6.3c0.6-1.7,1-2.9,1-3.6
			c0-0.5-0.4-1.8-1.2-3.8c-0.8-2-1.4-3.6-1.8-4.8c-2.6-7.1-3.8-11.3-3.8-12.6c0-0.9,0.4-1.3,1.1-1.3c0.5,0,1,0.1,1.5,0.4
			c0.6,0.3,0.9,0.4,1,0.4c1.4,0,2.5,0.7,3.5,2.1c0.5,0.7,0.8,1.3,1.1,1.9c0.3,0.6,0.5,1.2,0.7,1.8c0.2,0.6,0.7,1.9,1.5,3.9
			c0.5,1.2,0.8,2.1,0.8,2.7c0,0.1,0,0.2,0.1,0.3c0,0.1,0.1,0.1,0.1,0.2l2.9-6.4c3.1-7.1,5.1-10.6,5.9-10.6c0.8,0,1.9,0.6,3.2,1.7
			C93.2,8.6,93.8,9.5,93.8,10.2z"/>
		<path d="M118.2,9.8c0,1-0.1,2-0.4,2.8c-0.3,0.8-0.6,1.3-1.1,1.3c-2.8,0.3-4.6,0.5-5.3,0.5c-0.7,0.1-1.1,0.3-1.1,0.7v1.1
			c-0.1,2.1-0.1,4.9-0.2,8.3c0,3.4-0.1,7.5-0.1,12.4v11.5c0,1.9,0,3,0,3.3c0.2,0.3,0.3,0.6,0.3,0.8c0,0.7-0.6,1-1.7,1
			c-3.9,0-5.8-1.4-5.8-4.1v-2.3v-6.4v-9.3V24c0-0.9,0-1.9,0-3c0-1.1,0-2.3,0-3.5v-1.4l-5.6,0.6c-0.2-0.3-0.3-0.5-0.3-0.6
			c-0.4-0.6-0.7-1.1-0.9-1.4c-0.6-1.1-1-1.8-1-2.3l0.1-0.4c-0.2-0.6-0.3-1.1-0.3-1.3c0.1-0.2,0.2-0.4,0.3-0.5
			c0.3-0.4,0.7-0.6,1.2-0.8c2.1-0.4,3.6-0.7,4.5-0.9c0.9-0.1,1.8-0.3,2.5-0.4c2.3-0.3,4.1-0.5,5.2-0.7c1.1-0.2,2.1-0.4,2.9-0.5
			l1.2,0.2c0.2,0,0.4-0.1,0.8-0.2c0.3-0.1,0.6-0.2,0.8-0.2l1,0.2l0.6-0.2c0.3,0,0.9,0.5,1.5,1.5C118,8.9,118.2,9.4,118.2,9.8z"/>
	</g>
	<g>
		<path d="M180.1,10.1l-0.2,1.7v3.4c0,0.5,0,1.4,0,2.7c0,1.3,0,2.1,0,2.3v3.2l-0.3,5.1c0,0.3,0,2.2,0.1,5.7c0.1,3.6,0.1,6.6,0.1,9.3
			v5.7v2c0,1.1-0.1,1.9-0.3,2.2c-0.2,0.4-0.6,0.6-1.2,0.6c-1,0-2.2-0.5-3.6-1.4c-1.4-0.9-2.1-1.6-2.1-2v-1.9V34.9
			c0.1-12.8,0.2-19.6,0.2-20.2l-0.2-2.9c0-1.7,0.1-2.8,0.4-3.3c0.2-0.5,0.9-0.8,1.9-0.8c1.5,0,2.7,0.3,3.7,0.8
			C179.7,8.9,180.1,9.5,180.1,10.1z"/>
		<path d="M213,43.4c0,3.7-0.1,6.2-0.3,7.4c-0.2,1.3-0.6,1.9-1.2,1.9c-0.3,0-0.7-0.1-1.3-0.2s-1-0.2-1.3-0.2h-0.5
			c-1,0-1.8-0.3-2.2-1c-0.4-0.7-0.7-1.2-0.8-1.6c-5.3-10.6-7.9-16-7.9-16.3l-1.5-3.4c-0.1-0.3-0.2-0.4-0.3-0.5
			c-0.1-0.1-0.2-0.2-0.4-0.3c-0.1,0.3-0.1,0.6-0.1,0.8c0,1.4,0,2.7,0.1,3.8c0.2,4,0.3,6.3,0.3,6.7v4.5v4.9v0.5c0,1.4,0,2.1-0.1,2.4
			c-0.2,1-0.8,1.5-2,1.5c-0.6,0-1.2-0.2-1.8-0.5c-0.6-0.3-1-0.5-1.4-0.6c-0.3-0.1-0.6-0.1-1-0.2c-0.3,0-0.5-0.2-0.5-0.4v-1.2
			c-0.1-1.7-0.1-3.4-0.1-4.8c0-1.5-0.1-3.1-0.1-4.9v-5.7v-4.3l0.2-8.7c0.3-8.4,0.4-12.7,0.4-12.9c0.1-0.4,0.4-0.6,1-0.6
			c0.6,0,1.5,0.2,2.7,0.5c1.2,0.3,2,0.6,2.4,0.9c0.4,0.3,0.9,1,1.4,2.2c0.5,1.2,1.2,3.1,2,5.5c1.7,4.7,3.3,8.9,4.9,12.6
			c0.6,1.3,1.3,2.8,2.1,4.5c0.2-0.3,0.3-0.5,0.3-0.7c0-0.2,0-0.9-0.1-2.2c-0.1-1.3-0.1-2.3-0.1-3c0.3-14.4,0.4-21.7,0.4-21.9
			c0-0.6,0.1-1,0.4-1.1c0.2-0.1,0.6-0.1,1.2-0.1c2,0,3.3,0.2,4,0.5s1.1,0.9,1.1,1.8c0,0.1,0.1,1.5,0.2,4.1c0.1,2.7,0.2,5.3,0.2,7.9
			l-0.2,9.8L213,43.4z"/>
	</g>
	<path d="M152.6,33.5c0.7-0.5,1.3-0.9,1.6-1.1c0.7-0.4,1.3-0.8,2.1-1.2c0.4-0.2,0.7-0.4,0.9-0.5c-0.2-0.1-0.5-0.3-0.9-0.5
		c-0.7-0.4-1.4-0.8-2-1.2c-0.1,0-0.2,0-0.3,0c-2.6-0.1-6.2-0.1-11-0.1h-7.3h-4.8c-0.8,0-1.8,0-2.9,0h-2l-0.9,0.2l-0.9-0.2
		c-0.6,0-0.9,0.3-0.9,1c0,1.2,0.7,2.3,2,3.3c1.4,1.1,2.5,1.6,3.4,1.6h5.4l6.2-0.1c0.1,0,1.2,0,3.2,0.1c2,0,3.4,0.1,4.2,0.1
		c1.1,0,2.2,0,3.3,0l0.4-0.2C151.5,34.3,151.9,34,152.6,33.5z"/>
	<path d="M157.2,32.3c0,0.1,0,0.3,0.1,0.4l0.4-0.2c0.4-0.3,0.9,0,1.4,0.7c0-0.1,0.1-0.1,0.1-0.2c0.4-0.6,0.6-1.3,0.8-2
		c0.1-0.7,0.3-1.3,0.6-1.7c0.4-0.6,0-1.3-1.1-2.1c-1.1-0.8-2.7-1.9-4.8-3.3l-3.2-2.1l-2.2-1.4c-0.4-0.2-0.8-0.5-1.3-0.8l-0.9-0.6
		l-0.5-0.1l-0.3-0.5c-0.3-0.2-0.6,0.1-1,0.7c-0.7,1.1-1.1,2.4-1.2,3.9c-0.1,1.4,0.1,2.3,0.5,2.5l2.4,1.6l2.9,1.6c0,0,0.5,0.4,1.4,1
		c0.9,0.6,1.5,1,1.8,1.3c0,0,0,0,0,0C155.8,31.3,157.2,31.6,157.2,32.3z"/>
	<path d="M157.2,30.6c0.1-0.1,0.2-0.1,0.2-0.1l0.4-0.2c0-0.1-0.1-0.3-0.1-0.4c0-0.6-1.2-0.9-3.5-1c0.6,0.4,1.3,0.8,2,1.2
		C156.7,30.4,157,30.5,157.2,30.6z"/>
	<g>
		<path d="M160,33.8c-0.1-0.6-0.3-1.2-0.6-1.7c0-0.1-0.1-0.1-0.1-0.1c-0.3,0.4-0.6,0.6-0.8,0.7c0,0,0.1,0.1,0.1,0.1
			c0.6,0.6,0.8,1.2,0.8,1.8c0,0.9-0.5,1.3-1.5,1.3h-1.8c-0.2,0-1.2,0-3,0.1c-0.7,0-1.3,0-2,0l-2,1.2l-2.1,1.3
			c-0.3,0.2-0.5,0.9-0.4,2.2c0.1,1.2,0.4,2.3,1,3.3c0.3,0.5,0.6,0.7,0.9,0.6l0.2-0.4l0.5,0l0.7-0.5c0.4-0.3,0.8-0.5,1.1-0.7l1.8-1.2
			l2.8-1.8c1.8-1.2,3.2-2.1,4.1-2.8c0.9-0.7,1.2-1.3,0.9-1.8C160.3,34.9,160.1,34.4,160,33.8z"/>
		<path d="M156.1,35.7h1.8c1,0,1.5-0.4,1.5-1.3c0-0.6-0.3-1.2-0.8-1.8c0,0-0.1-0.1-0.1-0.1c-0.1,0-0.2,0-0.3-0.1l-0.7-0.4
			c0,0-0.1-0.1-0.2-0.1c-0.2,0.1-0.5,0.3-0.9,0.5c-0.7,0.4-1.4,0.8-2.1,1.2c-0.3,0.2-0.8,0.6-1.6,1.1c-0.7,0.5-1.1,0.8-1.2,0.8
			l-0.4,0.2c0.7,0,1.3,0,2,0C154.8,35.8,155.8,35.7,156.1,35.7z"/>
	</g>
	<path d="M158.1,30.1l-0.3,0.2c0.1,0.3,0.3,0.6,0.7,1c0.3,0,0.5-0.2,0.8-0.7C158.9,30,158.5,29.8,158.1,30.1z"/>
	<path d="M157.4,30.5c0,0-0.1,0.1-0.2,0.1c0.1,0.1,0.2,0.1,0.2,0.1l0.7,0.4c0.1,0.1,0.2,0.1,0.3,0.1c-0.3-0.4-0.6-0.7-0.7-1
		L157.4,30.5z"/>
</g>
</svg>
